PathFileType	4	(X/Y/Z)	C:\Users\WrightLab\Desktop\Jo\P5V26.trc
DataRate	CameraRate	NumFrames	NumMarkers	Units	OrigDataRate	OrigDataStartFrame	OrigNumFrames
100.00	100.00	       13	19	mm	100.00	555	       739
Frame#	Time	Headset_Front			Headset_Back			Headset_Left			Headset_Right			Left_Shoulder			Right_Shoulder			Sternum			C7			Left Elbow			Right Elbow			Left Wrist			Right Wrist			Left ASIS			Right ASIS			S2			Left Knee			Right Knee			Left Ankle			Right Ankle			
		X1	Y1	Z1	X2	Y2	Z2	X3	Y3	Z3	X4	Y4	Z4	X5	Y5	Z5	X6	Y6	Z6	X7	Y7	Z7	X8	Y8	Z8	X9	Y9	Z9	X10	Y10	Z10	X11	Y11	Z11	X12	Y12	Z12	X13	Y13	Z13	X14	Y14	Z14	X15	Y15	Z15	X16	Y16	Z16	X17	Y17	Z17	X18	Y18	Z18	X19	Y19	Z19	

555	5.540							-169.29689	1570.72668	-118.26750	-400.20383	1535.78809	-111.00398	-65.86016	1509.36035	-329.14972	-447.32141	1442.20557	-226.43980	-243.90965	1298.82495	-237.81245	-304.26340	1534.71191	-396.57120	46.30021	1234.43274	-370.29694	-598.37274	1218.46265	-147.12799	40.84594	1004.20905	-276.72858	-251.66362	999.88721	-521.00171	-78.03607	924.44794	-294.11954	-360.03238	924.42590	-217.43748	-625.92017	1084.16943	67.22578	-63.17234	498.56476	-330.33548	-419.91034	493.30728	-259.26190	-114.86753	84.50402	-454.93420	-434.90869	93.54505	-292.52295	
556	5.550							-174.65681	1569.96521	-116.15172	-406.09491	1534.87573	-109.18734	-69.66286	1510.12354	-326.05054	-450.98181	1440.91602	-224.78288	-247.65714	1298.39563	-236.35719	-308.25327	1534.38550	-394.22968	43.86353	1234.96350	-368.48679	-602.32208	1216.40344	-147.07968	38.51881	1005.97748	-272.82336	-253.23096	1000.72937	-520.62634	-80.39877	925.30365	-291.44177	-362.46130	923.18933	-217.11911	-631.90479	1082.03027	66.24686	-64.77235	498.54178	-328.91965	-421.05368	492.79062	-258.90778	-114.81960	84.37898	-454.74866	-434.95718	93.48544	-292.15240	
557	5.560							-180.10736	1568.84473	-113.07533	-411.69138	1533.83875	-108.01634	-73.85542	1511.35278	-322.96158	-456.04987	1439.89441	-223.99608	-251.31259	1298.24451	-234.69136	-312.74747	1534.74072	-393.06808	39.89532	1237.15845	-363.96344	-606.27893	1214.37988	-147.31604	35.47261	1008.06287	-269.74893	-254.59784	1000.56201	-519.50635	-81.33989	926.12714	-289.75427	-364.26468	922.93445	-215.94807	-637.12463	1080.31470	66.42127	-65.49914	499.11505	-328.44089	-422.23697	491.82111	-259.35962	-114.38784	84.78821	-455.09525	-435.02661	93.39120	-292.19708	
558	5.570							-186.17569	1568.72998	-112.12354	-417.44479	1532.47583	-106.46756	-77.57336	1512.80176	-320.01974	-461.36252	1438.79822	-223.41948	-255.26196	1298.20032	-232.77634	-316.94656	1534.33582	-391.47351	37.26426	1238.32483	-361.11020	-610.32745	1212.29651	-146.54608	31.64057	1009.55066	-266.50580	-255.97351	1001.65857	-519.66461	-82.60904	927.30768	-287.19415	-366.75159	922.26440	-216.51982	-642.53430	1077.86523	66.01029	-66.70761	499.59149	-328.05222	-423.87241	491.43942	-259.59525	-114.36990	84.98459	-455.02350	-435.07611	93.31570	-292.21729	
559	5.580							-191.23611	1567.99292	-109.04191	-422.70355	1531.78931	-105.49992	-82.85362	1513.35144	-316.51740	-465.86453	1437.28918	-222.21484	-258.59546	1297.83484	-230.55511	-320.91162	1533.92346	-389.53891	34.01366	1240.62378	-359.80963	-614.18536	1211.10388	-147.59758	29.71950	1010.83044	-263.23221	-257.82037	1002.46948	-518.77515	-84.30818	928.14307	-285.99765	-368.57993	922.05518	-216.29443	-647.84363	1075.99548	66.04370	-67.67766	499.89346	-327.59326	-425.54181	491.85287	-258.11383	-114.09305	85.27462	-454.78204	-435.31296	93.06176	-292.31586	
560	5.590							-197.08731	1567.43420	-105.74760	-428.55414	1531.37512	-104.73435	-86.23904	1515.24500	-313.92017	-469.55981	1436.09058	-221.41907	-262.58972	1298.28479	-228.64461	-325.05222	1533.94739	-387.61478	31.09961	1242.27063	-356.57800	-618.16858	1209.19104	-147.44183	26.67305	1012.42371	-260.50082	-259.02063	1002.48535	-517.77789	-85.08895	929.16095	-283.54361	-370.68307	920.76788	-214.40004	-652.50989	1073.97253	65.33242	-68.57928	499.68549	-327.16046	-425.91379	491.11246	-258.92209	-113.85741	85.49497	-454.53049	-435.41367	92.94356	-292.00345	
561	5.600							-201.96254	1566.71460	-104.64356	-434.04816	1530.12732	-102.98697	-90.91029	1515.90527	-311.11670	-473.34793	1434.75488	-220.54427	-265.94312	1298.23560	-226.06758	-329.04150	1533.88354	-386.05807	26.89949	1243.44360	-351.87891	-621.80096	1207.15735	-147.28743	22.47388	1013.76196	-258.27875	-260.48547	1003.25543	-517.74512	-86.88064	929.83740	-281.67056	-372.92679	920.65039	-214.39470	-656.95044	1071.34167	64.82983	-69.52657	499.97830	-326.77576	-428.12054	491.05939	-257.36459	-113.80786	85.75996	-454.81665	-435.47888	92.87695	-292.02722	
562	5.610							-207.50378	1566.10254	-102.12963	-439.15570	1529.16479	-100.92540	-95.46352	1516.44678	-308.37180	-477.94968	1433.15173	-219.59067	-270.28445	1297.46497	-225.23663	-333.40161	1533.55872	-384.60870	23.92317	1244.81714	-349.90884	-625.17914	1205.28516	-147.47714	20.04184	1015.57166	-255.44176	-262.21713	1004.00031	-516.12524	-88.44600	930.56891	-279.76175	-374.75717	920.31104	-213.13087	-662.12622	1069.90991	63.68960	-70.08080	500.51370	-326.01898	-428.28922	490.91599	-257.36459	-113.88176	85.53162	-454.52261	-435.56149	92.84794	-292.06979	
563	5.620	-357.58987	1420.29297	-43.10716				-212.66029	1565.43347	-100.84602	-444.49387	1528.38037	-100.01971	-99.42896	1517.87927	-305.65952	-482.29208	1432.57422	-219.24356	-273.27002	1297.58630	-221.72145	-337.15634	1533.10083	-383.04938	21.29482	1246.37341	-346.46478	-628.95898	1203.56445	-147.66132	17.57551	1016.48810	-253.12238	-263.97067	1004.67822	-515.40942	-89.93576	931.97015	-278.07370	-376.19940	919.35815	-212.32121	-665.11304	1066.93555	64.90858	-71.61765	500.38858	-326.01065	-428.21796	491.09634	-257.20026	-113.89007	85.74001	-454.74170	-435.78894	92.68949	-291.90387	
564	5.630	-362.47806	1419.70471	-41.89818				-217.82159	1565.11206	-97.94435	-449.48605	1527.53760	-98.51476	-103.48715	1518.27417	-303.25079	-487.06857	1430.89587	-218.09564	-276.70877	1297.72131	-221.05341	-340.96985	1532.94922	-380.94522	18.39295	1247.32581	-343.38519	-632.20355	1200.97351	-147.59175	13.49931	1017.59686	-250.54631	-265.49088	1004.52765	-514.22437	-91.67259	932.50110	-276.64505	-378.03809	919.41534	-211.06357	-670.16357	1065.33752	62.93776	-72.56243	500.65747	-325.45142	-429.09219	490.89642	-257.03561	-113.85605	85.97211	-454.90723	-435.94406	92.46093	-291.71823	
565	5.640	-367.74643	1418.83191	-40.84397				-223.60965	1563.62561	-94.66904	-454.20135	1526.47620	-97.71706	-107.44723	1519.13269	-300.47571	-489.71716	1429.39795	-216.52945	-280.41287	1298.20923	-219.09363	-344.38620	1532.60315	-378.99072	15.69233	1248.55713	-342.76056	-636.16565	1200.02710	-148.28326	9.87269	1019.43878	-248.55498	-267.42252	1005.38141	-512.60071	-92.99282	933.43646	-275.14307	-379.72754	918.56702	-210.32405	-672.93158	1063.52881	63.60282	-73.67198	500.38641	-325.08377	-429.29700	490.51389	-256.73865	-113.88657	85.83691	-454.69580	-436.32141	92.10098	-291.90509	
566	5.650	-372.55820	1418.30847	-38.15464				-227.53568	1564.57996	-94.01768	-459.71008	1525.82764	-96.86269	-110.84811	1521.36035	-296.83575	-495.05328	1428.87292	-216.71436	-283.17575	1297.69800	-217.40768	-348.14218	1532.71973	-377.92438	12.93185	1250.46167	-340.97537	-639.53674	1198.53296	-149.25999	7.53629	1020.48047	-245.14339	-269.94138	1005.70331	-511.80444	-95.07716	934.02216	-273.14325	-381.21143	917.82056	-209.63548	-677.13586	1061.62537	62.63251	-74.37466	500.04294	-324.78537	-429.92123	490.67505	-256.13229	-113.76861	86.14235	-454.69458	-436.38309	92.06052	-291.92120	
567	5.660	-377.28207	1417.00330	-38.51036				-232.22089	1563.59302	-91.56213	-463.86224	1524.55554	-95.22973	-114.90410	1521.55139	-294.38480	-499.67896	1428.24451	-216.05142	-287.25522	1297.44092	-216.93214	-352.35544	1532.52844	-376.92422	9.98975	1251.61353	-337.21173	-642.82715	1196.63391	-149.87239	4.72713	1021.92340	-242.76379	-271.63675	1006.40350	-510.79730	-95.59753	935.20538	-271.04367	-383.29587	917.93427	-207.98027	-680.00043	1059.34863	62.63525	-74.99854	500.11743	-324.45233	-430.20538	490.96017	-255.33192	-113.76628	86.19988	-454.66733	-436.54642	91.99722	-291.63916	
